<svg xmlns="http://www.w3.org/2000/svg" xmlns:xlink="http://www.w3.org/1999/xlink" width="1420" height="860" viewBox="0 0 1420 860">
<defs>
<filter id="shadow" x="-20%" y="-20%" width="140%" height="140%"><feDropShadow dx="0" dy="2" stdDeviation="3" flood-color="#1f2933" flood-opacity="0.12"/></filter>
<pattern id="pat_sandstone" width="18" height="18" patternUnits="userSpaceOnUse">
<rect width="18" height="18" fill="#f4d27a"/>
<circle cx="5" cy="5" r="1.1" fill="#8a6d3b" opacity="0.75"/>
<circle cx="14" cy="12" r="1" fill="#8a6d3b" opacity="0.65"/>
</pattern>
<pattern id="pat_mudstone" width="18" height="18" patternUnits="userSpaceOnUse">
<rect width="18" height="18" fill="#6f7787"/>
<path d="M0 5 H18 M0 11 H18 M0 17 H18" stroke="#3f4854" stroke-width="0.9" opacity="0.72"/>
</pattern>
<pattern id="pat_limestone" width="18" height="18" patternUnits="userSpaceOnUse">
<rect width="18" height="18" fill="#c9d6df"/>
<path d="M0 6 H18 M0 12 H18 M9 0 V6 M4 6 V12 M13 12 V18" stroke="#6d8291" stroke-width="0.9" opacity="0.75"/>
</pattern>
<pattern id="pat_conglomerate" width="18" height="18" patternUnits="userSpaceOnUse">
<rect width="18" height="18" fill="#d6b48a"/>
<circle cx="5" cy="6" r="3" fill="none" stroke="#8b6f47" stroke-width="1"/>
<circle cx="14" cy="13" r="2.5" fill="none" stroke="#8b6f47" stroke-width="1"/>
</pattern>
<pattern id="pat_granite" width="18" height="18" patternUnits="userSpaceOnUse">
<rect width="18" height="18" fill="#efb5b5"/>
<path d="M3 4 L6 7 M12 3 L15 6 M4 14 L8 11 M12 13 L16 16" stroke="#8e4d5a" stroke-width="1.1"/>
<circle cx="9" cy="9" r="1" fill="#8e4d5a"/>
</pattern>
<pattern id="pat_basalt" width="18" height="18" patternUnits="userSpaceOnUse">
<rect width="18" height="18" fill="#4f5965"/>
<path d="M0 0 L18 18 M-4 8 L8 20 M10 -2 L22 10" stroke="#25303a" stroke-width="1" opacity="0.65"/>
</pattern>
<pattern id="pat_default" width="18" height="18" patternUnits="userSpaceOnUse">
<rect width="18" height="18" fill="#d8dee6"/>
<path d="M0 0 L18 18 M18 0 L0 18" stroke="#9aa5b1" stroke-width="0.8" opacity="0.45"/>
</pattern>
</defs>
<rect width="100%" height="100%" fill="#f6f8fa"/>
<rect x="28" y="28" width="1364" height="804" rx="8" fill="#ffffff" stroke="#dde3ea" filter="url(#shadow)"/>
<text x="710.00" y="45.00" font-family="Microsoft YaHei, SimHei, Arial, sans-serif" font-size="24" font-weight="700" fill="#1f2933" text-anchor="middle">D路线AI辅助实测剖面</text>
<text x="710.00" y="73.00" font-family="Microsoft YaHei, SimHei, Arial, sans-serif" font-size="14" font-weight="400" fill="#52616f" text-anchor="middle">A点 - B点    比例尺：1:1000    剖面方位：65°</text>
<rect x="92" y="84" width="1038" height="648" fill="#fbfcfd" stroke="#c7d0d9"/>
<line x1="92.00" y1="84" x2="92.00" y2="732" stroke="#e6ebf0" stroke-width="1"/>
<line x1="92.00" y1="732" x2="92.00" y2="738" stroke="#52616f" stroke-width="1"/>
<text x="92.00" y="755.00" font-family="Microsoft YaHei, SimHei, Arial, sans-serif" font-size="11" font-weight="400" fill="#52616f" text-anchor="middle">0</text>
<line x1="265.00" y1="84" x2="265.00" y2="732" stroke="#e6ebf0" stroke-width="1"/>
<line x1="265.00" y1="732" x2="265.00" y2="738" stroke="#52616f" stroke-width="1"/>
<text x="265.00" y="755.00" font-family="Microsoft YaHei, SimHei, Arial, sans-serif" font-size="11" font-weight="400" fill="#52616f" text-anchor="middle">20</text>
<line x1="438.00" y1="84" x2="438.00" y2="732" stroke="#e6ebf0" stroke-width="1"/>
<line x1="438.00" y1="732" x2="438.00" y2="738" stroke="#52616f" stroke-width="1"/>
<text x="438.00" y="755.00" font-family="Microsoft YaHei, SimHei, Arial, sans-serif" font-size="11" font-weight="400" fill="#52616f" text-anchor="middle">40</text>
<line x1="611.00" y1="84" x2="611.00" y2="732" stroke="#e6ebf0" stroke-width="1"/>
<line x1="611.00" y1="732" x2="611.00" y2="738" stroke="#52616f" stroke-width="1"/>
<text x="611.00" y="755.00" font-family="Microsoft YaHei, SimHei, Arial, sans-serif" font-size="11" font-weight="400" fill="#52616f" text-anchor="middle">60</text>
<line x1="784.00" y1="84" x2="784.00" y2="732" stroke="#e6ebf0" stroke-width="1"/>
<line x1="784.00" y1="732" x2="784.00" y2="738" stroke="#52616f" stroke-width="1"/>
<text x="784.00" y="755.00" font-family="Microsoft YaHei, SimHei, Arial, sans-serif" font-size="11" font-weight="400" fill="#52616f" text-anchor="middle">80</text>
<line x1="957.00" y1="84" x2="957.00" y2="732" stroke="#e6ebf0" stroke-width="1"/>
<line x1="957.00" y1="732" x2="957.00" y2="738" stroke="#52616f" stroke-width="1"/>
<text x="957.00" y="755.00" font-family="Microsoft YaHei, SimHei, Arial, sans-serif" font-size="11" font-weight="400" fill="#52616f" text-anchor="middle">100</text>
<line x1="1130.00" y1="84" x2="1130.00" y2="732" stroke="#e6ebf0" stroke-width="1"/>
<line x1="1130.00" y1="732" x2="1130.00" y2="738" stroke="#52616f" stroke-width="1"/>
<text x="1130.00" y="755.00" font-family="Microsoft YaHei, SimHei, Arial, sans-serif" font-size="11" font-weight="400" fill="#52616f" text-anchor="middle">120</text>
<text x="611.00" y="780.00" font-family="Microsoft YaHei, SimHei, Arial, sans-serif" font-size="13" font-weight="400" fill="#334e68" text-anchor="middle">沿剖面距离 / m</text>
<line x1="92" y1="689.12" x2="1130" y2="689.12" stroke="#edf1f5" stroke-width="1"/>
<line x1="86" y1="689.12" x2="92" y2="689.12" stroke="#52616f" stroke-width="1"/>
<text x="80.00" y="693.12" font-family="Microsoft YaHei, SimHei, Arial, sans-serif" font-size="11" font-weight="400" fill="#52616f" text-anchor="end">60</text>
<line x1="92" y1="602.62" x2="1130" y2="602.62" stroke="#edf1f5" stroke-width="1"/>
<line x1="86" y1="602.62" x2="92" y2="602.62" stroke="#52616f" stroke-width="1"/>
<text x="80.00" y="606.62" font-family="Microsoft YaHei, SimHei, Arial, sans-serif" font-size="11" font-weight="400" fill="#52616f" text-anchor="end">70</text>
<line x1="92" y1="516.12" x2="1130" y2="516.12" stroke="#edf1f5" stroke-width="1"/>
<line x1="86" y1="516.12" x2="92" y2="516.12" stroke="#52616f" stroke-width="1"/>
<text x="80.00" y="520.12" font-family="Microsoft YaHei, SimHei, Arial, sans-serif" font-size="11" font-weight="400" fill="#52616f" text-anchor="end">80</text>
<line x1="92" y1="429.62" x2="1130" y2="429.62" stroke="#edf1f5" stroke-width="1"/>
<line x1="86" y1="429.62" x2="92" y2="429.62" stroke="#52616f" stroke-width="1"/>
<text x="80.00" y="433.62" font-family="Microsoft YaHei, SimHei, Arial, sans-serif" font-size="11" font-weight="400" fill="#52616f" text-anchor="end">90</text>
<line x1="92" y1="343.12" x2="1130" y2="343.12" stroke="#edf1f5" stroke-width="1"/>
<line x1="86" y1="343.12" x2="92" y2="343.12" stroke="#52616f" stroke-width="1"/>
<text x="80.00" y="347.12" font-family="Microsoft YaHei, SimHei, Arial, sans-serif" font-size="11" font-weight="400" fill="#52616f" text-anchor="end">100</text>
<line x1="92" y1="256.62" x2="1130" y2="256.62" stroke="#edf1f5" stroke-width="1"/>
<line x1="86" y1="256.62" x2="92" y2="256.62" stroke="#52616f" stroke-width="1"/>
<text x="80.00" y="260.62" font-family="Microsoft YaHei, SimHei, Arial, sans-serif" font-size="11" font-weight="400" fill="#52616f" text-anchor="end">110</text>
<text x="34.00" y="102.00" font-family="Microsoft YaHei, SimHei, Arial, sans-serif" font-size="13" font-weight="400" fill="#334e68" text-anchor="middle">高程 / m</text>
<defs>
<pattern id="unit_pat_D1" width="18" height="18" patternUnits="userSpaceOnUse" patternTransform="rotate(70.00)">
<rect width="18" height="18" fill="#f4d27a"/>
<circle cx="5" cy="5" r="1.1" fill="#8a6d3b" opacity="0.75"/>
<circle cx="14" cy="12" r="1" fill="#8a6d3b" opacity="0.65"/>
</pattern>
</defs>
<clipPath id="clip_D1"><path d="M 92.00 343.12 C 93.15 342.90, 96.59 342.22, 98.88 341.79 C 101.17 341.37, 103.47 340.95, 105.76 340.55 C 108.05 340.14, 110.35 339.75, 112.64 339.36 C 114.94 338.98, 117.23 338.60, 119.52 338.23 C 121.82 337.86, 124.11 337.50, 126.40 337.14 C 128.70 336.78, 130.99 336.42, 133.28 336.06 C 135.58 335.70, 137.87 335.35, 140.16 334.99 C 142.46 334.63, 144.75 334.27, 147.05 333.91 C 149.34 333.54, 151.63 333.18, 153.93 332.80 C 156.22 332.42, 158.51 332.04, 160.81 331.65 C 163.10 331.26, 165.39 330.86, 167.69 330.44 C 169.98 330.03, 172.27 329.60, 174.57 329.16 C 176.86 328.72, 179.16 328.26, 181.45 327.79 C 183.74 327.32, 186.04 326.83, 188.33 326.32 C 190.62 325.80, 192.92 325.28, 195.21 324.72 C 197.50 324.17, 199.80 323.60, 202.09 322.99 C 204.38 322.39, 206.68 321.77, 208.97 321.12 C 211.27 320.46, 213.56 319.78, 215.85 319.07 C 218.15 318.36, 220.44 317.62, 222.73 316.85 C 225.03 316.07, 227.32 315.26, 229.61 314.42 C 231.91 313.57, 234.20 312.69, 236.49 311.79 C 238.79 310.88, 241.08 309.95, 243.38 308.99 C 245.67 308.02, 247.96 307.03, 250.26 306.02 C 252.55 305.01, 254.84 303.98, 257.14 302.92 C 259.43 301.87, 261.72 300.79, 264.02 299.70 C 266.31 298.61, 268.60 297.50, 270.90 296.38 C 273.19 295.26, 275.48 294.13, 277.78 292.98 C 280.07 291.84, 282.37 290.68, 284.66 289.52 C 286.95 288.36, 289.25 287.19, 291.54 286.02 C 293.83 284.84, 296.13 283.66, 298.42 282.49 C 300.71 281.31, 303.01 280.13, 305.30 278.96 C 307.59 277.78, 309.89 276.61, 312.18 275.44 C 314.48 274.28, 316.77 273.12, 319.06 271.97 C 321.36 270.81, 323.65 269.67, 325.94 268.54 C 328.24 267.41, 330.53 266.29, 332.82 265.19 C 335.12 264.09, 337.41 263.00, 339.70 261.93 C 342.00 260.87, 344.29 259.82, 346.59 258.79 C 348.88 257.76, 351.17 256.79, 353.47 255.77 C 355.76 254.74, 358.05 253.71, 360.35 252.64 C 362.64 251.58, 364.93 250.48, 367.23 249.37 C 369.52 248.26, 371.81 247.13, 374.11 245.98 C 376.40 244.84, 378.70 243.68, 380.99 242.52 C 383.28 241.35, 385.58 240.18, 387.87 239.00 C 390.16 237.83, 393.60 236.07, 394.75 235.48 L 540.97 637.23 L 199.04 637.23 Z"/></clipPath>
<path d="M 92.00 343.12 C 93.15 342.90, 96.59 342.22, 98.88 341.79 C 101.17 341.37, 103.47 340.95, 105.76 340.55 C 108.05 340.14, 110.35 339.75, 112.64 339.36 C 114.94 338.98, 117.23 338.60, 119.52 338.23 C 121.82 337.86, 124.11 337.50, 126.40 337.14 C 128.70 336.78, 130.99 336.42, 133.28 336.06 C 135.58 335.70, 137.87 335.35, 140.16 334.99 C 142.46 334.63, 144.75 334.27, 147.05 333.91 C 149.34 333.54, 151.63 333.18, 153.93 332.80 C 156.22 332.42, 158.51 332.04, 160.81 331.65 C 163.10 331.26, 165.39 330.86, 167.69 330.44 C 169.98 330.03, 172.27 329.60, 174.57 329.16 C 176.86 328.72, 179.16 328.26, 181.45 327.79 C 183.74 327.32, 186.04 326.83, 188.33 326.32 C 190.62 325.80, 192.92 325.28, 195.21 324.72 C 197.50 324.17, 199.80 323.60, 202.09 322.99 C 204.38 322.39, 206.68 321.77, 208.97 321.12 C 211.27 320.46, 213.56 319.78, 215.85 319.07 C 218.15 318.36, 220.44 317.62, 222.73 316.85 C 225.03 316.07, 227.32 315.26, 229.61 314.42 C 231.91 313.57, 234.20 312.69, 236.49 311.79 C 238.79 310.88, 241.08 309.95, 243.38 308.99 C 245.67 308.02, 247.96 307.03, 250.26 306.02 C 252.55 305.01, 254.84 303.98, 257.14 302.92 C 259.43 301.87, 261.72 300.79, 264.02 299.70 C 266.31 298.61, 268.60 297.50, 270.90 296.38 C 273.19 295.26, 275.48 294.13, 277.78 292.98 C 280.07 291.84, 282.37 290.68, 284.66 289.52 C 286.95 288.36, 289.25 287.19, 291.54 286.02 C 293.83 284.84, 296.13 283.66, 298.42 282.49 C 300.71 281.31, 303.01 280.13, 305.30 278.96 C 307.59 277.78, 309.89 276.61, 312.18 275.44 C 314.48 274.28, 316.77 273.12, 319.06 271.97 C 321.36 270.81, 323.65 269.67, 325.94 268.54 C 328.24 267.41, 330.53 266.29, 332.82 265.19 C 335.12 264.09, 337.41 263.00, 339.70 261.93 C 342.00 260.87, 344.29 259.82, 346.59 258.79 C 348.88 257.76, 351.17 256.79, 353.47 255.77 C 355.76 254.74, 358.05 253.71, 360.35 252.64 C 362.64 251.58, 364.93 250.48, 367.23 249.37 C 369.52 248.26, 371.81 247.13, 374.11 245.98 C 376.40 244.84, 378.70 243.68, 380.99 242.52 C 383.28 241.35, 385.58 240.18, 387.87 239.00 C 390.16 237.83, 393.60 236.07, 394.75 235.48 L 540.97 637.23 L 199.04 637.23 Z" fill="url(#unit_pat_D1)" stroke="#596a7a" stroke-width="1.1" opacity="0.94"/>
<g clip-path="url(#clip_D1)">
<line x1="92.00" y1="343.12" x2="199.04" y2="637.23" stroke="#1f2933" stroke-width="1.05" opacity="0.46"/>
<line x1="122.28" y1="337.79" x2="231.26" y2="637.23" stroke="#1f2933" stroke-width="1.05" opacity="0.46"/>
<line x1="152.75" y1="332.99" x2="263.48" y2="637.23" stroke="#1f2933" stroke-width="1.05" opacity="0.46"/>
<line x1="182.96" y1="327.48" x2="295.70" y2="637.23" stroke="#1f2933" stroke-width="1.05" opacity="0.46"/>
<line x1="212.49" y1="320.09" x2="327.91" y2="637.23" stroke="#1f2933" stroke-width="1.05" opacity="0.46"/>
<line x1="241.02" y1="309.96" x2="360.13" y2="637.23" stroke="#1f2933" stroke-width="1.05" opacity="0.46"/>
<line x1="268.69" y1="297.46" x2="392.35" y2="637.23" stroke="#1f2933" stroke-width="1.05" opacity="0.46"/>
<line x1="295.92" y1="283.77" x2="424.57" y2="637.23" stroke="#1f2933" stroke-width="1.05" opacity="0.46"/>
<line x1="323.11" y1="269.94" x2="456.79" y2="637.23" stroke="#1f2933" stroke-width="1.05" opacity="0.46"/>
<line x1="350.62" y1="257.01" x2="489.01" y2="637.23" stroke="#1f2933" stroke-width="1.05" opacity="0.46"/>
<line x1="378.09" y1="243.98" x2="521.22" y2="637.23" stroke="#1f2933" stroke-width="1.05" opacity="0.46"/>
</g>
<defs>
<pattern id="unit_pat_D2" width="18" height="18" patternUnits="userSpaceOnUse" patternTransform="rotate(72.00)">
<rect width="18" height="18" fill="#6f7787"/>
<path d="M0 5 H18 M0 11 H18 M0 17 H18" stroke="#3f4854" stroke-width="0.9" opacity="0.72"/>
</pattern>
</defs>
<clipPath id="clip_D2"><path d="M 394.75 235.48 C 395.90 234.90, 399.34 233.14, 401.63 231.98 C 403.92 230.83, 406.22 229.67, 408.51 228.54 C 410.80 227.41, 413.10 226.29, 415.39 225.20 C 417.69 224.10, 419.98 223.02, 422.27 221.98 C 424.57 220.93, 426.86 219.91, 429.15 218.93 C 431.45 217.94, 433.74 216.98, 436.03 216.07 C 438.33 215.16, 440.62 214.28, 442.91 213.45 C 445.21 212.62, 447.50 211.83, 449.80 211.10 C 452.09 210.36, 454.38 209.67, 456.68 209.05 C 458.97 208.42, 461.26 207.84, 463.56 207.33 C 465.85 206.83, 468.14 206.37, 470.44 205.99 C 472.73 205.62, 475.02 205.30, 477.32 205.06 C 479.61 204.82, 481.91 204.66, 484.20 204.57 C 486.49 204.47, 488.79 204.45, 491.08 204.48 C 493.37 204.51, 495.67 204.61, 497.96 204.77 C 500.25 204.92, 502.55 205.14, 504.84 205.40 C 507.13 205.67, 509.43 205.99, 511.72 206.36 C 514.02 206.72, 516.31 207.15, 518.60 207.61 C 520.90 208.07, 523.19 208.58, 525.48 209.12 C 527.78 209.67, 530.07 210.26, 532.36 210.88 C 534.66 211.50, 536.95 212.16, 539.24 212.84 C 541.54 213.53, 543.83 214.25, 546.12 215.00 C 548.42 215.74, 550.71 216.52, 553.01 217.31 C 555.30 218.10, 557.59 218.92, 559.89 219.75 C 562.18 220.58, 564.47 221.43, 566.77 222.30 C 569.06 223.16, 571.35 224.04, 573.65 224.92 C 575.94 225.80, 578.23 226.70, 580.53 227.59 C 582.82 228.48, 585.12 229.39, 587.41 230.29 C 589.70 231.18, 592.00 232.08, 594.29 232.98 C 596.58 233.87, 598.88 234.76, 601.17 235.63 C 603.46 236.51, 605.76 237.37, 608.05 238.24 C 610.34 239.10, 612.64 239.92, 614.93 240.80 C 617.23 241.69, 619.52 242.60, 621.81 243.54 C 624.11 244.49, 626.40 245.47, 628.69 246.47 C 630.99 247.47, 633.28 248.50, 635.57 249.56 C 637.87 250.61, 640.16 251.68, 642.45 252.78 C 644.75 253.87, 647.04 254.98, 649.34 256.11 C 651.63 257.24, 653.92 258.38, 656.22 259.53 C 658.51 260.69, 660.80 261.85, 663.10 263.02 C 665.39 264.19, 667.68 265.37, 669.98 266.56 C 672.27 267.74, 674.56 268.92, 676.86 270.11 C 679.15 271.29, 681.45 272.48, 683.74 273.66 C 686.03 274.84, 688.33 276.01, 690.62 277.18 C 692.91 278.35, 696.35 280.07, 697.50 280.65 L 813.36 637.23 L 525.28 637.23 Z"/></clipPath>
<path d="M 394.75 235.48 C 395.90 234.90, 399.34 233.14, 401.63 231.98 C 403.92 230.83, 406.22 229.67, 408.51 228.54 C 410.80 227.41, 413.10 226.29, 415.39 225.20 C 417.69 224.10, 419.98 223.02, 422.27 221.98 C 424.57 220.93, 426.86 219.91, 429.15 218.93 C 431.45 217.94, 433.74 216.98, 436.03 216.07 C 438.33 215.16, 440.62 214.28, 442.91 213.45 C 445.21 212.62, 447.50 211.83, 449.80 211.10 C 452.09 210.36, 454.38 209.67, 456.68 209.05 C 458.97 208.42, 461.26 207.84, 463.56 207.33 C 465.85 206.83, 468.14 206.37, 470.44 205.99 C 472.73 205.62, 475.02 205.30, 477.32 205.06 C 479.61 204.82, 481.91 204.66, 484.20 204.57 C 486.49 204.47, 488.79 204.45, 491.08 204.48 C 493.37 204.51, 495.67 204.61, 497.96 204.77 C 500.25 204.92, 502.55 205.14, 504.84 205.40 C 507.13 205.67, 509.43 205.99, 511.72 206.36 C 514.02 206.72, 516.31 207.15, 518.60 207.61 C 520.90 208.07, 523.19 208.58, 525.48 209.12 C 527.78 209.67, 530.07 210.26, 532.36 210.88 C 534.66 211.50, 536.95 212.16, 539.24 212.84 C 541.54 213.53, 543.83 214.25, 546.12 215.00 C 548.42 215.74, 550.71 216.52, 553.01 217.31 C 555.30 218.10, 557.59 218.92, 559.89 219.75 C 562.18 220.58, 564.47 221.43, 566.77 222.30 C 569.06 223.16, 571.35 224.04, 573.65 224.92 C 575.94 225.80, 578.23 226.70, 580.53 227.59 C 582.82 228.48, 585.12 229.39, 587.41 230.29 C 589.70 231.18, 592.00 232.08, 594.29 232.98 C 596.58 233.87, 598.88 234.76, 601.17 235.63 C 603.46 236.51, 605.76 237.37, 608.05 238.24 C 610.34 239.10, 612.64 239.92, 614.93 240.80 C 617.23 241.69, 619.52 242.60, 621.81 243.54 C 624.11 244.49, 626.40 245.47, 628.69 246.47 C 630.99 247.47, 633.28 248.50, 635.57 249.56 C 637.87 250.61, 640.16 251.68, 642.45 252.78 C 644.75 253.87, 647.04 254.98, 649.34 256.11 C 651.63 257.24, 653.92 258.38, 656.22 259.53 C 658.51 260.69, 660.80 261.85, 663.10 263.02 C 665.39 264.19, 667.68 265.37, 669.98 266.56 C 672.27 267.74, 674.56 268.92, 676.86 270.11 C 679.15 271.29, 681.45 272.48, 683.74 273.66 C 686.03 274.84, 688.33 276.01, 690.62 277.18 C 692.91 278.35, 696.35 280.07, 697.50 280.65 L 813.36 637.23 L 525.28 637.23 Z" fill="url(#unit_pat_D2)" stroke="#596a7a" stroke-width="1.1" opacity="0.94"/>
<g clip-path="url(#clip_D2)">
<line x1="394.75" y1="235.48" x2="525.28" y2="637.23" stroke="#1f2933" stroke-width="1.05" opacity="0.46"/>
<line x1="416.68" y1="224.58" x2="550.75" y2="637.23" stroke="#1f2933" stroke-width="1.05" opacity="0.46"/>
<line x1="439.00" y1="214.91" x2="576.22" y2="637.23" stroke="#1f2933" stroke-width="1.05" opacity="0.46"/>
<line x1="462.11" y1="207.66" x2="601.69" y2="637.23" stroke="#1f2933" stroke-width="1.05" opacity="0.46"/>
<line x1="486.55" y1="204.49" x2="627.15" y2="637.23" stroke="#1f2933" stroke-width="1.05" opacity="0.46"/>
<line x1="512.67" y1="206.51" x2="652.62" y2="637.23" stroke="#1f2933" stroke-width="1.05" opacity="0.46"/>
<line x1="540.30" y1="213.16" x2="678.08" y2="637.23" stroke="#1f2933" stroke-width="1.05" opacity="0.46"/>
<line x1="569.01" y1="223.14" x2="703.55" y2="637.23" stroke="#1f2933" stroke-width="1.05" opacity="0.46"/>
<line x1="598.15" y1="234.47" x2="729.02" y2="637.23" stroke="#1f2933" stroke-width="1.05" opacity="0.46"/>
<line x1="627.33" y1="245.88" x2="754.48" y2="637.23" stroke="#1f2933" stroke-width="1.05" opacity="0.46"/>
<line x1="657.43" y1="260.14" x2="779.95" y2="637.23" stroke="#1f2933" stroke-width="1.05" opacity="0.46"/>
<line x1="687.99" y1="275.84" x2="805.42" y2="637.23" stroke="#1f2933" stroke-width="1.05" opacity="0.46"/>
</g>
<defs>
<pattern id="unit_pat_D3" width="18" height="18" patternUnits="userSpaceOnUse" patternTransform="rotate(68.00)">
<rect width="18" height="18" fill="#c9d6df"/>
<path d="M0 6 H18 M0 12 H18 M9 0 V6 M4 6 V12 M13 12 V18" stroke="#6d8291" stroke-width="0.9" opacity="0.75"/>
</pattern>
</defs>
<clipPath id="clip_D3"><path d="M 697.50 280.65 C 698.64 281.22, 702.08 282.93, 704.37 284.05 C 706.65 285.16, 708.94 286.26, 711.23 287.34 C 713.52 288.42, 715.81 289.48, 718.10 290.52 C 720.38 291.56, 722.67 292.57, 724.96 293.56 C 727.25 294.54, 729.54 295.50, 731.83 296.43 C 734.11 297.35, 736.40 298.25, 738.69 299.11 C 740.98 299.97, 743.27 300.80, 745.56 301.61 C 747.84 302.42, 750.13 303.21, 752.42 303.99 C 754.71 304.76, 757.00 305.52, 759.29 306.26 C 761.57 307.00, 763.86 307.72, 766.15 308.42 C 768.44 309.13, 770.73 309.82, 773.02 310.50 C 775.30 311.18, 777.59 311.84, 779.88 312.49 C 782.17 313.14, 784.46 313.78, 786.75 314.41 C 789.03 315.03, 791.32 315.65, 793.61 316.25 C 795.90 316.86, 798.19 317.45, 800.48 318.04 C 802.76 318.62, 805.05 319.20, 807.34 319.77 C 809.63 320.33, 811.92 320.89, 814.21 321.45 C 816.49 322.00, 818.78 322.55, 821.07 323.09 C 823.36 323.63, 825.65 324.17, 827.94 324.70 C 830.22 325.24, 832.51 325.77, 834.80 326.29 C 837.09 326.82, 839.38 327.34, 841.67 327.87 C 843.96 328.39, 846.24 328.91, 848.53 329.43 C 850.82 329.95, 853.11 330.47, 855.40 331.00 C 857.69 331.52, 859.97 332.04, 862.26 332.57 C 864.55 333.09, 866.84 333.62, 869.13 334.16 C 871.42 334.69, 873.70 335.22, 875.99 335.75 C 878.28 336.28, 880.57 336.80, 882.86 337.32 C 885.15 337.84, 887.43 338.35, 889.72 338.87 C 892.01 339.38, 894.30 339.88, 896.59 340.39 C 898.88 340.89, 901.16 341.39, 903.45 341.88 C 905.74 342.38, 908.03 342.87, 910.32 343.36 C 912.61 343.85, 914.89 344.33, 917.18 344.81 C 919.47 345.29, 921.76 345.76, 924.05 346.23 C 926.34 346.70, 928.62 347.17, 930.91 347.63 C 933.20 348.10, 935.49 348.56, 937.78 349.01 C 940.07 349.47, 942.35 349.92, 944.64 350.36 C 946.93 350.81, 949.22 351.25, 951.51 351.69 C 953.80 352.13, 956.08 352.56, 958.37 352.99 C 960.66 353.43, 962.95 353.85, 965.24 354.27 C 967.53 354.70, 969.81 355.12, 972.10 355.53 C 974.39 355.94, 976.68 356.36, 978.97 356.76 C 981.26 357.17, 983.54 357.57, 985.83 357.97 C 988.12 358.37, 990.41 358.76, 992.70 359.15 C 994.99 359.54, 997.28 359.93, 999.56 360.31 C 1001.85 360.69, 1004.14 361.07, 1006.43 361.44 C 1008.72 361.80, 1011.01 362.16, 1013.29 362.52 C 1015.58 362.87, 1017.87 363.21, 1020.16 363.56 C 1022.45 363.90, 1024.74 364.23, 1027.02 364.56 C 1029.31 364.89, 1031.60 365.21, 1033.89 365.53 C 1036.18 365.84, 1038.47 366.16, 1040.75 366.46 C 1043.04 366.77, 1045.33 367.08, 1047.62 367.38 C 1049.91 367.68, 1052.20 367.97, 1054.48 368.27 C 1056.77 368.56, 1059.06 368.85, 1061.35 369.14 C 1063.64 369.43, 1065.93 369.72, 1068.21 370.00 C 1070.50 370.29, 1072.79 370.57, 1075.08 370.85 C 1077.37 371.13, 1079.66 371.41, 1081.94 371.69 C 1084.23 371.97, 1086.52 372.25, 1088.81 372.53 C 1091.10 372.81, 1093.39 373.09, 1095.67 373.37 C 1097.96 373.65, 1100.25 373.93, 1102.54 374.22 C 1104.83 374.50, 1107.12 374.78, 1109.40 375.07 C 1111.69 375.36, 1113.98 375.65, 1116.27 375.94 C 1118.56 376.23, 1120.85 376.52, 1123.13 376.82 C 1125.42 377.12, 1128.86 377.57, 1130.00 377.73 L 1130.00 377.73 L 841.56 637.23 Z"/></clipPath>
<path d="M 697.50 280.65 C 698.64 281.22, 702.08 282.93, 704.37 284.05 C 706.65 285.16, 708.94 286.26, 711.23 287.34 C 713.52 288.42, 715.81 289.48, 718.10 290.52 C 720.38 291.56, 722.67 292.57, 724.96 293.56 C 727.25 294.54, 729.54 295.50, 731.83 296.43 C 734.11 297.35, 736.40 298.25, 738.69 299.11 C 740.98 299.97, 743.27 300.80, 745.56 301.61 C 747.84 302.42, 750.13 303.21, 752.42 303.99 C 754.71 304.76, 757.00 305.52, 759.29 306.26 C 761.57 307.00, 763.86 307.72, 766.15 308.42 C 768.44 309.13, 770.73 309.82, 773.02 310.50 C 775.30 311.18, 777.59 311.84, 779.88 312.49 C 782.17 313.14, 784.46 313.78, 786.75 314.41 C 789.03 315.03, 791.32 315.65, 793.61 316.25 C 795.90 316.86, 798.19 317.45, 800.48 318.04 C 802.76 318.62, 805.05 319.20, 807.34 319.77 C 809.63 320.33, 811.92 320.89, 814.21 321.45 C 816.49 322.00, 818.78 322.55, 821.07 323.09 C 823.36 323.63, 825.65 324.17, 827.94 324.70 C 830.22 325.24, 832.51 325.77, 834.80 326.29 C 837.09 326.82, 839.38 327.34, 841.67 327.87 C 843.96 328.39, 846.24 328.91, 848.53 329.43 C 850.82 329.95, 853.11 330.47, 855.40 331.00 C 857.69 331.52, 859.97 332.04, 862.26 332.57 C 864.55 333.09, 866.84 333.62, 869.13 334.16 C 871.42 334.69, 873.70 335.22, 875.99 335.75 C 878.28 336.28, 880.57 336.80, 882.86 337.32 C 885.15 337.84, 887.43 338.35, 889.72 338.87 C 892.01 339.38, 894.30 339.88, 896.59 340.39 C 898.88 340.89, 901.16 341.39, 903.45 341.88 C 905.74 342.38, 908.03 342.87, 910.32 343.36 C 912.61 343.85, 914.89 344.33, 917.18 344.81 C 919.47 345.29, 921.76 345.76, 924.05 346.23 C 926.34 346.70, 928.62 347.17, 930.91 347.63 C 933.20 348.10, 935.49 348.56, 937.78 349.01 C 940.07 349.47, 942.35 349.92, 944.64 350.36 C 946.93 350.81, 949.22 351.25, 951.51 351.69 C 953.80 352.13, 956.08 352.56, 958.37 352.99 C 960.66 353.43, 962.95 353.85, 965.24 354.27 C 967.53 354.70, 969.81 355.12, 972.10 355.53 C 974.39 355.94, 976.68 356.36, 978.97 356.76 C 981.26 357.17, 983.54 357.57, 985.83 357.97 C 988.12 358.37, 990.41 358.76, 992.70 359.15 C 994.99 359.54, 997.28 359.93, 999.56 360.31 C 1001.85 360.69, 1004.14 361.07, 1006.43 361.44 C 1008.72 361.80, 1011.01 362.16, 1013.29 362.52 C 1015.58 362.87, 1017.87 363.21, 1020.16 363.56 C 1022.45 363.90, 1024.74 364.23, 1027.02 364.56 C 1029.31 364.89, 1031.60 365.21, 1033.89 365.53 C 1036.18 365.84, 1038.47 366.16, 1040.75 366.46 C 1043.04 366.77, 1045.33 367.08, 1047.62 367.38 C 1049.91 367.68, 1052.20 367.97, 1054.48 368.27 C 1056.77 368.56, 1059.06 368.85, 1061.35 369.14 C 1063.64 369.43, 1065.93 369.72, 1068.21 370.00 C 1070.50 370.29, 1072.79 370.57, 1075.08 370.85 C 1077.37 371.13, 1079.66 371.41, 1081.94 371.69 C 1084.23 371.97, 1086.52 372.25, 1088.81 372.53 C 1091.10 372.81, 1093.39 373.09, 1095.67 373.37 C 1097.96 373.65, 1100.25 373.93, 1102.54 374.22 C 1104.83 374.50, 1107.12 374.78, 1109.40 375.07 C 1111.69 375.36, 1113.98 375.65, 1116.27 375.94 C 1118.56 376.23, 1120.85 376.52, 1123.13 376.82 C 1125.42 377.12, 1128.86 377.57, 1130.00 377.73 L 1130.00 377.73 L 841.56 637.23 Z" fill="url(#unit_pat_D3)" stroke="#596a7a" stroke-width="1.1" opacity="0.94"/>
<g clip-path="url(#clip_D3)">
<line x1="697.50" y1="280.65" x2="841.56" y2="637.23" stroke="#1f2933" stroke-width="1.05" opacity="0.46"/>
<line x1="745.08" y1="301.44" x2="880.75" y2="637.23" stroke="#1f2933" stroke-width="1.05" opacity="0.46"/>
<line x1="789.84" y1="315.25" x2="919.93" y2="637.23" stroke="#1f2933" stroke-width="1.05" opacity="0.46"/>
<line x1="833.35" y1="325.96" x2="959.11" y2="637.23" stroke="#1f2933" stroke-width="1.05" opacity="0.46"/>
<line x1="876.54" y1="335.88" x2="998.30" y2="637.23" stroke="#1f2933" stroke-width="1.05" opacity="0.46"/>
<line x1="919.53" y1="345.30" x2="1037.48" y2="637.23" stroke="#1f2933" stroke-width="1.05" opacity="0.46"/>
<line x1="962.11" y1="353.69" x2="1076.66" y2="637.23" stroke="#1f2933" stroke-width="1.05" opacity="0.46"/>
<line x1="1004.28" y1="361.09" x2="1115.85" y2="637.23" stroke="#1f2933" stroke-width="1.05" opacity="0.46"/>
<line x1="1045.91" y1="367.15" x2="1130.00" y2="575.27" stroke="#1f2933" stroke-width="1.05" opacity="0.46"/>
<line x1="1087.19" y1="372.33" x2="1130.00" y2="478.29" stroke="#1f2933" stroke-width="1.05" opacity="0.46"/>
</g>
<path d="M 92.00 343.12 C 93.15 342.90, 96.61 342.22, 98.92 341.79 C 101.23 341.36, 103.53 340.94, 105.84 340.53 C 108.15 340.13, 110.45 339.73, 112.76 339.35 C 115.07 338.96, 117.37 338.58, 119.68 338.21 C 121.99 337.84, 124.29 337.47, 126.60 337.11 C 128.91 336.74, 131.21 336.39, 133.52 336.03 C 135.83 335.67, 138.13 335.31, 140.44 334.95 C 142.75 334.59, 145.05 334.23, 147.36 333.86 C 149.67 333.49, 151.97 333.12, 154.28 332.74 C 156.59 332.36, 158.89 331.98, 161.20 331.58 C 163.51 331.18, 165.81 330.78, 168.12 330.36 C 170.43 329.94, 172.73 329.51, 175.04 329.07 C 177.35 328.62, 179.65 328.16, 181.96 327.68 C 184.27 327.20, 186.57 326.71, 188.88 326.19 C 191.19 325.68, 193.49 325.14, 195.80 324.58 C 198.11 324.02, 200.41 323.44, 202.72 322.83 C 205.03 322.22, 207.33 321.59, 209.64 320.92 C 211.95 320.26, 214.25 319.57, 216.56 318.85 C 218.87 318.13, 221.17 317.38, 223.48 316.59 C 225.79 315.80, 228.09 314.98, 230.40 314.13 C 232.71 313.27, 235.01 312.38, 237.32 311.46 C 239.63 310.54, 241.93 309.59, 244.24 308.62 C 246.55 307.65, 248.85 306.65, 251.16 305.62 C 253.47 304.60, 255.77 303.55, 258.08 302.49 C 260.39 301.42, 262.69 300.34, 265.00 299.23 C 267.31 298.13, 269.61 297.01, 271.92 295.88 C 274.23 294.75, 276.53 293.60, 278.84 292.45 C 281.15 291.30, 283.45 290.13, 285.76 288.96 C 288.07 287.79, 290.37 286.61, 292.68 285.43 C 294.99 284.25, 297.29 283.07, 299.60 281.88 C 301.91 280.70, 304.21 279.51, 306.52 278.33 C 308.83 277.15, 311.13 275.97, 313.44 274.80 C 315.75 273.63, 318.05 272.47, 320.36 271.31 C 322.67 270.16, 324.97 269.01, 327.28 267.88 C 329.59 266.75, 331.89 265.63, 334.20 264.53 C 336.51 263.43, 338.81 262.34, 341.12 261.28 C 343.43 260.21, 345.73 259.17, 348.04 258.14 C 350.35 257.11, 352.65 256.14, 354.96 255.10 C 357.27 254.07, 359.57 253.01, 361.88 251.93 C 364.19 250.84, 366.49 249.73, 368.80 248.61 C 371.11 247.48, 373.41 246.33, 375.72 245.18 C 378.03 244.02, 380.33 242.85, 382.64 241.68 C 384.95 240.50, 387.25 239.32, 389.56 238.14 C 391.87 236.96, 394.17 235.77, 396.48 234.60 C 398.79 233.42, 401.09 232.25, 403.40 231.09 C 405.71 229.93, 408.01 228.78, 410.32 227.65 C 412.63 226.52, 414.93 225.41, 417.24 224.32 C 419.55 223.23, 421.85 222.16, 424.16 221.12 C 426.47 220.09, 428.77 219.08, 431.08 218.11 C 433.39 217.13, 435.69 216.19, 438.00 215.30 C 440.31 214.40, 442.61 213.54, 444.92 212.74 C 447.23 211.93, 449.53 211.16, 451.84 210.45 C 454.15 209.75, 456.45 209.09, 458.76 208.49 C 461.07 207.89, 463.37 207.35, 465.68 206.88 C 467.99 206.41, 470.29 205.99, 472.60 205.66 C 474.91 205.32, 477.21 205.05, 479.52 204.85 C 481.83 204.66, 484.13 204.55, 486.44 204.49 C 488.75 204.44, 491.05 204.46, 493.36 204.53 C 495.67 204.61, 497.97 204.75, 500.28 204.94 C 502.59 205.14, 504.89 205.39, 507.20 205.69 C 509.51 206.00, 511.81 206.36, 514.12 206.76 C 516.43 207.16, 518.73 207.62, 521.04 208.11 C 523.35 208.61, 525.65 209.15, 527.96 209.73 C 530.27 210.30, 532.57 210.92, 534.88 211.57 C 537.19 212.22, 539.49 212.91, 541.80 213.62 C 544.11 214.34, 546.41 215.08, 548.72 215.85 C 551.03 216.62, 553.33 217.42, 555.64 218.23 C 557.95 219.04, 560.25 219.88, 562.56 220.73 C 564.87 221.58, 567.17 222.45, 569.48 223.32 C 571.79 224.20, 574.09 225.09, 576.40 225.98 C 578.71 226.88, 581.01 227.78, 583.32 228.68 C 585.63 229.58, 587.93 230.49, 590.24 231.39 C 592.55 232.30, 594.85 233.20, 597.16 234.09 C 599.47 234.98, 601.77 235.87, 604.08 236.74 C 606.39 237.62, 608.69 238.45, 611.00 239.32 C 613.31 240.20, 615.61 241.05, 617.92 241.97 C 620.23 242.88, 622.53 243.83, 624.84 244.81 C 627.15 245.79, 629.45 246.80, 631.76 247.83 C 634.07 248.86, 636.37 249.92, 638.68 250.99 C 640.99 252.07, 643.29 253.17, 645.60 254.29 C 647.91 255.40, 650.21 256.54, 652.52 257.68 C 654.83 258.83, 657.13 259.99, 659.44 261.16 C 661.75 262.33, 664.05 263.51, 666.36 264.69 C 668.67 265.88, 670.97 267.07, 673.28 268.26 C 675.59 269.45, 677.89 270.64, 680.20 271.83 C 682.51 273.02, 684.81 274.21, 687.12 275.39 C 689.43 276.57, 691.73 277.75, 694.04 278.91 C 696.35 280.08, 698.65 281.23, 700.96 282.37 C 703.27 283.51, 705.57 284.64, 707.88 285.75 C 710.19 286.85, 712.49 287.94, 714.80 289.01 C 717.11 290.08, 719.41 291.12, 721.72 292.14 C 724.03 293.16, 726.33 294.16, 728.64 295.12 C 730.95 296.08, 733.25 297.01, 735.56 297.91 C 737.87 298.81, 740.17 299.67, 742.48 300.51 C 744.79 301.35, 747.09 302.16, 749.40 302.95 C 751.71 303.75, 754.01 304.53, 756.32 305.29 C 758.63 306.05, 760.93 306.79, 763.24 307.52 C 765.55 308.24, 767.85 308.95, 770.16 309.65 C 772.47 310.34, 774.77 311.02, 777.08 311.69 C 779.39 312.36, 781.69 313.01, 784.00 313.65 C 786.31 314.29, 788.61 314.92, 790.92 315.54 C 793.23 316.16, 795.53 316.76, 797.84 317.36 C 800.15 317.96, 802.45 318.54, 804.76 319.12 C 807.07 319.70, 809.37 320.27, 811.68 320.83 C 813.99 321.40, 816.29 321.95, 818.60 322.50 C 820.91 323.05, 823.21 323.60, 825.52 324.14 C 827.83 324.68, 830.13 325.21, 832.44 325.75 C 834.75 326.28, 837.05 326.81, 839.36 327.34 C 841.67 327.87, 843.97 328.39, 846.28 328.92 C 848.59 329.44, 850.89 329.97, 853.20 330.49 C 855.51 331.02, 857.81 331.55, 860.12 332.08 C 862.43 332.61, 864.73 333.14, 867.04 333.67 C 869.35 334.20, 871.65 334.75, 873.96 335.28 C 876.27 335.81, 878.57 336.34, 880.88 336.87 C 883.19 337.40, 885.49 337.92, 887.80 338.43 C 890.11 338.95, 892.41 339.47, 894.72 339.98 C 897.03 340.49, 899.33 340.99, 901.64 341.49 C 903.95 341.99, 906.25 342.49, 908.56 342.98 C 910.87 343.48, 913.17 343.97, 915.48 344.45 C 917.79 344.94, 920.09 345.42, 922.40 345.89 C 924.71 346.37, 927.01 346.84, 929.32 347.31 C 931.63 347.78, 933.93 348.24, 936.24 348.70 C 938.55 349.16, 940.85 349.62, 943.16 350.07 C 945.47 350.52, 947.77 350.97, 950.08 351.42 C 952.39 351.86, 954.69 352.30, 957.00 352.74 C 959.31 353.17, 961.61 353.60, 963.92 354.03 C 966.23 354.46, 968.53 354.88, 970.84 355.30 C 973.15 355.72, 975.45 356.14, 977.76 356.55 C 980.07 356.96, 982.37 357.36, 984.68 357.77 C 986.99 358.17, 989.29 358.57, 991.60 358.96 C 993.91 359.36, 996.21 359.75, 998.52 360.14 C 1000.83 360.52, 1003.13 360.90, 1005.44 361.28 C 1007.75 361.65, 1010.05 362.01, 1012.36 362.37 C 1014.67 362.73, 1016.97 363.08, 1019.28 363.42 C 1021.59 363.77, 1023.89 364.11, 1026.20 364.44 C 1028.51 364.77, 1030.81 365.10, 1033.12 365.42 C 1035.43 365.74, 1037.73 366.06, 1040.04 366.37 C 1042.35 366.68, 1044.65 366.99, 1046.96 367.29 C 1049.27 367.59, 1051.57 367.89, 1053.88 368.19 C 1056.19 368.49, 1058.49 368.78, 1060.80 369.07 C 1063.11 369.36, 1065.41 369.65, 1067.72 369.94 C 1070.03 370.23, 1072.33 370.51, 1074.64 370.80 C 1076.95 371.08, 1079.25 371.36, 1081.56 371.64 C 1083.87 371.93, 1086.17 372.21, 1088.48 372.49 C 1090.79 372.77, 1093.09 373.05, 1095.40 373.34 C 1097.71 373.62, 1100.01 373.90, 1102.32 374.19 C 1104.63 374.47, 1106.93 374.76, 1109.24 375.05 C 1111.55 375.34, 1113.85 375.63, 1116.16 375.92 C 1118.47 376.22, 1120.77 376.51, 1123.08 376.81 C 1125.39 377.11, 1128.85 377.57, 1130.00 377.73" fill="none" stroke="#263238" stroke-width="2.8"/>
<path d="M 92.00 343.12 C 93.15 342.90, 96.61 342.22, 98.92 341.79 C 101.23 341.36, 103.53 340.94, 105.84 340.53 C 108.15 340.13, 110.45 339.73, 112.76 339.35 C 115.07 338.96, 117.37 338.58, 119.68 338.21 C 121.99 337.84, 124.29 337.47, 126.60 337.11 C 128.91 336.74, 131.21 336.39, 133.52 336.03 C 135.83 335.67, 138.13 335.31, 140.44 334.95 C 142.75 334.59, 145.05 334.23, 147.36 333.86 C 149.67 333.49, 151.97 333.12, 154.28 332.74 C 156.59 332.36, 158.89 331.98, 161.20 331.58 C 163.51 331.18, 165.81 330.78, 168.12 330.36 C 170.43 329.94, 172.73 329.51, 175.04 329.07 C 177.35 328.62, 179.65 328.16, 181.96 327.68 C 184.27 327.20, 186.57 326.71, 188.88 326.19 C 191.19 325.68, 193.49 325.14, 195.80 324.58 C 198.11 324.02, 200.41 323.44, 202.72 322.83 C 205.03 322.22, 207.33 321.59, 209.64 320.92 C 211.95 320.26, 214.25 319.57, 216.56 318.85 C 218.87 318.13, 221.17 317.38, 223.48 316.59 C 225.79 315.80, 228.09 314.98, 230.40 314.13 C 232.71 313.27, 235.01 312.38, 237.32 311.46 C 239.63 310.54, 241.93 309.59, 244.24 308.62 C 246.55 307.65, 248.85 306.65, 251.16 305.62 C 253.47 304.60, 255.77 303.55, 258.08 302.49 C 260.39 301.42, 262.69 300.34, 265.00 299.23 C 267.31 298.13, 269.61 297.01, 271.92 295.88 C 274.23 294.75, 276.53 293.60, 278.84 292.45 C 281.15 291.30, 283.45 290.13, 285.76 288.96 C 288.07 287.79, 290.37 286.61, 292.68 285.43 C 294.99 284.25, 297.29 283.07, 299.60 281.88 C 301.91 280.70, 304.21 279.51, 306.52 278.33 C 308.83 277.15, 311.13 275.97, 313.44 274.80 C 315.75 273.63, 318.05 272.47, 320.36 271.31 C 322.67 270.16, 324.97 269.01, 327.28 267.88 C 329.59 266.75, 331.89 265.63, 334.20 264.53 C 336.51 263.43, 338.81 262.34, 341.12 261.28 C 343.43 260.21, 345.73 259.17, 348.04 258.14 C 350.35 257.11, 352.65 256.14, 354.96 255.10 C 357.27 254.07, 359.57 253.01, 361.88 251.93 C 364.19 250.84, 366.49 249.73, 368.80 248.61 C 371.11 247.48, 373.41 246.33, 375.72 245.18 C 378.03 244.02, 380.33 242.85, 382.64 241.68 C 384.95 240.50, 387.25 239.32, 389.56 238.14 C 391.87 236.96, 394.17 235.77, 396.48 234.60 C 398.79 233.42, 401.09 232.25, 403.40 231.09 C 405.71 229.93, 408.01 228.78, 410.32 227.65 C 412.63 226.52, 414.93 225.41, 417.24 224.32 C 419.55 223.23, 421.85 222.16, 424.16 221.12 C 426.47 220.09, 428.77 219.08, 431.08 218.11 C 433.39 217.13, 435.69 216.19, 438.00 215.30 C 440.31 214.40, 442.61 213.54, 444.92 212.74 C 447.23 211.93, 449.53 211.16, 451.84 210.45 C 454.15 209.75, 456.45 209.09, 458.76 208.49 C 461.07 207.89, 463.37 207.35, 465.68 206.88 C 467.99 206.41, 470.29 205.99, 472.60 205.66 C 474.91 205.32, 477.21 205.05, 479.52 204.85 C 481.83 204.66, 484.13 204.55, 486.44 204.49 C 488.75 204.44, 491.05 204.46, 493.36 204.53 C 495.67 204.61, 497.97 204.75, 500.28 204.94 C 502.59 205.14, 504.89 205.39, 507.20 205.69 C 509.51 206.00, 511.81 206.36, 514.12 206.76 C 516.43 207.16, 518.73 207.62, 521.04 208.11 C 523.35 208.61, 525.65 209.15, 527.96 209.73 C 530.27 210.30, 532.57 210.92, 534.88 211.57 C 537.19 212.22, 539.49 212.91, 541.80 213.62 C 544.11 214.34, 546.41 215.08, 548.72 215.85 C 551.03 216.62, 553.33 217.42, 555.64 218.23 C 557.95 219.04, 560.25 219.88, 562.56 220.73 C 564.87 221.58, 567.17 222.45, 569.48 223.32 C 571.79 224.20, 574.09 225.09, 576.40 225.98 C 578.71 226.88, 581.01 227.78, 583.32 228.68 C 585.63 229.58, 587.93 230.49, 590.24 231.39 C 592.55 232.30, 594.85 233.20, 597.16 234.09 C 599.47 234.98, 601.77 235.87, 604.08 236.74 C 606.39 237.62, 608.69 238.45, 611.00 239.32 C 613.31 240.20, 615.61 241.05, 617.92 241.97 C 620.23 242.88, 622.53 243.83, 624.84 244.81 C 627.15 245.79, 629.45 246.80, 631.76 247.83 C 634.07 248.86, 636.37 249.92, 638.68 250.99 C 640.99 252.07, 643.29 253.17, 645.60 254.29 C 647.91 255.40, 650.21 256.54, 652.52 257.68 C 654.83 258.83, 657.13 259.99, 659.44 261.16 C 661.75 262.33, 664.05 263.51, 666.36 264.69 C 668.67 265.88, 670.97 267.07, 673.28 268.26 C 675.59 269.45, 677.89 270.64, 680.20 271.83 C 682.51 273.02, 684.81 274.21, 687.12 275.39 C 689.43 276.57, 691.73 277.75, 694.04 278.91 C 696.35 280.08, 698.65 281.23, 700.96 282.37 C 703.27 283.51, 705.57 284.64, 707.88 285.75 C 710.19 286.85, 712.49 287.94, 714.80 289.01 C 717.11 290.08, 719.41 291.12, 721.72 292.14 C 724.03 293.16, 726.33 294.16, 728.64 295.12 C 730.95 296.08, 733.25 297.01, 735.56 297.91 C 737.87 298.81, 740.17 299.67, 742.48 300.51 C 744.79 301.35, 747.09 302.16, 749.40 302.95 C 751.71 303.75, 754.01 304.53, 756.32 305.29 C 758.63 306.05, 760.93 306.79, 763.24 307.52 C 765.55 308.24, 767.85 308.95, 770.16 309.65 C 772.47 310.34, 774.77 311.02, 777.08 311.69 C 779.39 312.36, 781.69 313.01, 784.00 313.65 C 786.31 314.29, 788.61 314.92, 790.92 315.54 C 793.23 316.16, 795.53 316.76, 797.84 317.36 C 800.15 317.96, 802.45 318.54, 804.76 319.12 C 807.07 319.70, 809.37 320.27, 811.68 320.83 C 813.99 321.40, 816.29 321.95, 818.60 322.50 C 820.91 323.05, 823.21 323.60, 825.52 324.14 C 827.83 324.68, 830.13 325.21, 832.44 325.75 C 834.75 326.28, 837.05 326.81, 839.36 327.34 C 841.67 327.87, 843.97 328.39, 846.28 328.92 C 848.59 329.44, 850.89 329.97, 853.20 330.49 C 855.51 331.02, 857.81 331.55, 860.12 332.08 C 862.43 332.61, 864.73 333.14, 867.04 333.67 C 869.35 334.20, 871.65 334.75, 873.96 335.28 C 876.27 335.81, 878.57 336.34, 880.88 336.87 C 883.19 337.40, 885.49 337.92, 887.80 338.43 C 890.11 338.95, 892.41 339.47, 894.72 339.98 C 897.03 340.49, 899.33 340.99, 901.64 341.49 C 903.95 341.99, 906.25 342.49, 908.56 342.98 C 910.87 343.48, 913.17 343.97, 915.48 344.45 C 917.79 344.94, 920.09 345.42, 922.40 345.89 C 924.71 346.37, 927.01 346.84, 929.32 347.31 C 931.63 347.78, 933.93 348.24, 936.24 348.70 C 938.55 349.16, 940.85 349.62, 943.16 350.07 C 945.47 350.52, 947.77 350.97, 950.08 351.42 C 952.39 351.86, 954.69 352.30, 957.00 352.74 C 959.31 353.17, 961.61 353.60, 963.92 354.03 C 966.23 354.46, 968.53 354.88, 970.84 355.30 C 973.15 355.72, 975.45 356.14, 977.76 356.55 C 980.07 356.96, 982.37 357.36, 984.68 357.77 C 986.99 358.17, 989.29 358.57, 991.60 358.96 C 993.91 359.36, 996.21 359.75, 998.52 360.14 C 1000.83 360.52, 1003.13 360.90, 1005.44 361.28 C 1007.75 361.65, 1010.05 362.01, 1012.36 362.37 C 1014.67 362.73, 1016.97 363.08, 1019.28 363.42 C 1021.59 363.77, 1023.89 364.11, 1026.20 364.44 C 1028.51 364.77, 1030.81 365.10, 1033.12 365.42 C 1035.43 365.74, 1037.73 366.06, 1040.04 366.37 C 1042.35 366.68, 1044.65 366.99, 1046.96 367.29 C 1049.27 367.59, 1051.57 367.89, 1053.88 368.19 C 1056.19 368.49, 1058.49 368.78, 1060.80 369.07 C 1063.11 369.36, 1065.41 369.65, 1067.72 369.94 C 1070.03 370.23, 1072.33 370.51, 1074.64 370.80 C 1076.95 371.08, 1079.25 371.36, 1081.56 371.64 C 1083.87 371.93, 1086.17 372.21, 1088.48 372.49 C 1090.79 372.77, 1093.09 373.05, 1095.40 373.34 C 1097.71 373.62, 1100.01 373.90, 1102.32 374.19 C 1104.63 374.47, 1106.93 374.76, 1109.24 375.05 C 1111.55 375.34, 1113.85 375.63, 1116.16 375.92 C 1118.47 376.22, 1120.77 376.51, 1123.08 376.81 C 1125.39 377.11, 1128.85 377.57, 1130.00 377.73" fill="none" stroke="#ffffff" stroke-width="1.0" opacity="0.55"/>
<circle cx="92.00" cy="343.12" r="2.4" fill="#263238"/>
<circle cx="221.75" cy="317.17" r="2.4" fill="#263238"/>
<circle cx="351.50" cy="256.62" r="2.4" fill="#263238"/>
<circle cx="481.25" cy="204.72" r="2.4" fill="#263238"/>
<circle cx="611.00" cy="239.32" r="2.4" fill="#263238"/>
<circle cx="740.75" cy="299.88" r="2.4" fill="#263238"/>
<circle cx="870.50" cy="334.48" r="2.4" fill="#263238"/>
<circle cx="1000.25" cy="360.42" r="2.4" fill="#263238"/>
<circle cx="1130.00" cy="377.73" r="2.4" fill="#263238"/>
<line x1="714.80" y1="289.01" x2="1099.01" y2="637.23" stroke="#c0392b" stroke-width="3"/>
<line x1="714.80" y1="289.01" x2="1099.01" y2="637.23" stroke="#ffffff" stroke-width="1.1" stroke-dasharray="8 8"/>
<text x="722.80" y="277.01" font-family="Microsoft YaHei, SimHei, Arial, sans-serif" font-size="13" font-weight="700" fill="#a93226" text-anchor="start">断层</text>
<rect x="870.50" y="334.48" width="112.45" height="302.75" fill="#6c5ce7" opacity="0.13" stroke="#6c5ce7" stroke-width="1.3" stroke-dasharray="4 4"/>
<text x="926.73" y="326.48" font-family="Microsoft YaHei, SimHei, Arial, sans-serif" font-size="12" font-weight="400" fill="#4b3fbf" text-anchor="middle">节理密集带</text>
<text x="243.38" y="366.99" font-family="Microsoft YaHei, SimHei, Arial, sans-serif" font-size="13" font-weight="700" fill="#1f2933" text-anchor="middle">
<tspan x="243.38" dy="0.00">D1  中粒石英砂岩</tspan>
</text>
<text x="243.38" y="400.99" font-family="Microsoft YaHei, SimHei, Arial, sans-serif" font-size="11" font-weight="400" fill="#334e68" text-anchor="middle">
<tspan x="243.38" dy="0.00">板状交错层理</tspan>
</text>
<line x1="207.38" y1="421.99" x2="279.38" y2="455.99" stroke="#1f2933" stroke-width="2"/>
<line x1="243.38" y1="432.99" x2="243.38" y2="444.99" stroke="#1f2933" stroke-width="1.4"/>
<text x="243.38" y="460.99" font-family="Microsoft YaHei, SimHei, Arial, sans-serif" font-size="10.5" font-weight="400" fill="#334e68" text-anchor="middle">145°∠70°</text>
<text x="546.12" y="273.00" font-family="Microsoft YaHei, SimHei, Arial, sans-serif" font-size="13" font-weight="700" fill="#1f2933" text-anchor="middle">
<tspan x="546.12" dy="0.00">D2  灰黑色泥岩</tspan>
</text>
<text x="546.12" y="307.00" font-family="Microsoft YaHei, SimHei, Arial, sans-serif" font-size="11" font-weight="400" fill="#334e68" text-anchor="middle">
<tspan x="546.12" dy="0.00">薄层状平行层理</tspan>
</text>
<line x1="510.12" y1="328.00" x2="582.12" y2="362.00" stroke="#1f2933" stroke-width="2"/>
<line x1="546.12" y1="339.00" x2="546.12" y2="351.00" stroke="#1f2933" stroke-width="1.4"/>
<text x="546.12" y="367.00" font-family="Microsoft YaHei, SimHei, Arial, sans-serif" font-size="10.5" font-weight="400" fill="#334e68" text-anchor="middle">150°∠72°</text>
<text x="913.75" y="402.09" font-family="Microsoft YaHei, SimHei, Arial, sans-serif" font-size="13" font-weight="700" fill="#1f2933" text-anchor="middle">
<tspan x="913.75" dy="0.00">D3  灰白色中厚层灰岩</tspan>
</text>
<text x="913.75" y="436.09" font-family="Microsoft YaHei, SimHei, Arial, sans-serif" font-size="11" font-weight="400" fill="#334e68" text-anchor="middle">
<tspan x="913.75" dy="0.00">中厚层状</tspan>
</text>
<line x1="877.75" y1="457.09" x2="949.75" y2="491.09" stroke="#1f2933" stroke-width="2"/>
<line x1="913.75" y1="468.09" x2="913.75" y2="480.09" stroke="#1f2933" stroke-width="1.4"/>
<text x="913.75" y="496.09" font-family="Microsoft YaHei, SimHei, Arial, sans-serif" font-size="10.5" font-weight="400" fill="#334e68" text-anchor="middle">148°∠68°</text>
<text x="1164.00" y="92.00" font-family="Microsoft YaHei, SimHei, Arial, sans-serif" font-size="17" font-weight="700" fill="#1f2933" text-anchor="start">图例</text>
<rect x="1164" y="120" width="28" height="18" fill="url(#pat_limestone)" stroke="#596a7a"/>
<text x="1202.00" y="134.00" font-family="Microsoft YaHei, SimHei, Arial, sans-serif" font-size="12.5" font-weight="400" fill="#334e68" text-anchor="start">灰岩</text>
<rect x="1164" y="150" width="28" height="18" fill="url(#pat_mudstone)" stroke="#596a7a"/>
<text x="1202.00" y="164.00" font-family="Microsoft YaHei, SimHei, Arial, sans-serif" font-size="12.5" font-weight="400" fill="#334e68" text-anchor="start">泥岩/页岩</text>
<rect x="1164" y="180" width="28" height="18" fill="url(#pat_sandstone)" stroke="#596a7a"/>
<text x="1202.00" y="194.00" font-family="Microsoft YaHei, SimHei, Arial, sans-serif" font-size="12.5" font-weight="400" fill="#334e68" text-anchor="start">砂岩</text>
<line x1="1164" y1="220" x2="1200" y2="220" stroke="#263238" stroke-width="2.6"/>
<text x="1210.00" y="224.00" font-family="Microsoft YaHei, SimHei, Arial, sans-serif" font-size="12.5" font-weight="400" fill="#334e68" text-anchor="start">地形线</text>
<line x1="1164" y1="246" x2="1200" y2="246" stroke="#c0392b" stroke-width="3"/>
<text x="1210.00" y="250.00" font-family="Microsoft YaHei, SimHei, Arial, sans-serif" font-size="12.5" font-weight="400" fill="#334e68" text-anchor="start">断层</text>
<rect x="1164" y="263" width="36" height="18" fill="#6c5ce7" opacity="0.13" stroke="#6c5ce7" stroke-dasharray="4 4"/>
<text x="1210.00" y="276.00" font-family="Microsoft YaHei, SimHei, Arial, sans-serif" font-size="12.5" font-weight="400" fill="#334e68" text-anchor="start">节理密集带</text>
<line x1="1164" y1="308" x2="1200" y2="292" stroke="#1f2933" stroke-width="1.2" opacity="0.55"/>
<text x="1210.00" y="304.00" font-family="Microsoft YaHei, SimHei, Arial, sans-serif" font-size="12.5" font-weight="400" fill="#334e68" text-anchor="start">层面线：间距=厚度，角度=产状</text>
<text x="1164.00" y="354.00" font-family="Microsoft YaHei, SimHei, Arial, sans-serif" font-size="15" font-weight="700" fill="#1f2933" text-anchor="start">说明</text>
<text x="1164.00" y="378.00" font-family="Microsoft YaHei, SimHei, Arial, sans-serif" font-size="11.5" font-weight="400" fill="#52616f" text-anchor="start">
<tspan x="1164.00" dy="0.00">1. 地形线按地形点平滑插值绘制。</tspan>
</text>
<text x="1164.00" y="402.00" font-family="Microsoft YaHei, SimHei, Arial, sans-serif" font-size="11.5" font-weight="400" fill="#52616f" text-anchor="start">
<tspan x="1164.00" dy="0.00">2. 岩层内部斜线读取 thick</tspan>
<tspan x="1164.00" dy="17.00">ness_m 和 dip_angl</tspan>
<tspan x="1164.00" dy="17.00">e_deg。</tspan>
</text>
<text x="1164.00" y="426.00" font-family="Microsoft YaHei, SimHei, Arial, sans-serif" font-size="11.5" font-weight="400" fill="#52616f" text-anchor="start">
<tspan x="1164.00" dy="0.00">3. 岩层线和岩性花纹角度始终使用</tspan>
<tspan x="1164.00" dy="17.00">真倾角绘制。</tspan>
</text>
<text x="1164.00" y="450.00" font-family="Microsoft YaHei, SimHei, Arial, sans-serif" font-size="11.5" font-weight="400" fill="#52616f" text-anchor="start">
<tspan x="1164.00" dy="0.00">4. 图件用于比赛快速成果表达，可</tspan>
<tspan x="1164.00" dy="17.00">人工复核后修饰。</tspan>
</text>
<text x="92.00" y="810.00" font-family="Microsoft YaHei, SimHei, Arial, sans-serif" font-size="11.5" font-weight="400" fill="#697889" text-anchor="start">数据来源：section_info.csv / topography.csv / units.csv / structures.csv</text>
<text x="1130.00" y="810.00" font-family="Microsoft YaHei, SimHei, Arial, sans-serif" font-size="11.5" font-weight="400" fill="#697889" text-anchor="end">GeoAgent 剖面图自动生成</text>
</svg>